<svg version="1.1" xmlns="http://www.w3.org/2000/svg" xmlns:xlink="http://www.w3.org/1999/xlink" width="52.77067" height="119.99829" viewBox="0,0,52.77067,119.99829"><defs><linearGradient x1="240.42836" y1="120.00163" x2="239.57124" y2="239.99806" gradientUnits="userSpaceOnUse" id="color-1"><stop offset="0" stop-color="#27aae1"/><stop offset="1" stop-color="#115489"/></linearGradient><linearGradient x1="240.3962" y1="124.50391" x2="239.60341" y2="235.49428" gradientUnits="userSpaceOnUse" id="color-2"><stop offset="0" stop-color="#2f7eba"/><stop offset="0.506" stop-color="#3f9dd6"/><stop offset="1" stop-color="#3e97d1"/></linearGradient></defs><g transform="translate(-213.61466,-120.00085)"><g data-paper-data="{&quot;isPaintingLayer&quot;:true}" fill-rule="nonzero" stroke="none" stroke-width="1" stroke-linecap="butt" stroke-linejoin="miter" stroke-miterlimit="10" stroke-dasharray="" stroke-dashoffset="0" style="mix-blend-mode: normal"><path d="M239.57194,239.99847c-14.41563,-0.10297 -26.05956,-11.91544 -25.95659,-26.33007l0.48365,-67.71127c0.10296,-14.41463 11.91343,-26.05857 26.33006,-25.9556c14.41463,0.10296 26.05857,11.91343 25.9556,26.32906l-0.48365,67.71127c-0.10296,14.41463 -11.91444,26.05956 -26.32907,25.9566z" fill="url(#color-1)"/><path d="M239.60411,235.49458c-11.9517,-0.08537 -21.57125,-9.84233 -21.48588,-21.79402l0.48365,-67.71127c0.08537,-11.9517 9.84333,-21.57124 21.79502,-21.48587v0c11.9507,0.08536 21.57024,9.84332 21.48487,21.79502l-0.48365,67.71127c-0.08537,11.9517 -9.84332,21.57024 -21.79402,21.48488z" fill="url(#color-2)"/><text transform="translate(228.72631,139.06447) scale(0.90626,0.27293)" font-size="40" xml:space="preserve" fill="#000000" fill-rule="nonzero" stroke="none" stroke-width="1" stroke-linecap="butt" stroke-linejoin="miter" stroke-miterlimit="10" stroke-dasharray="" stroke-dashoffset="0" font-family="Sans Serif" font-weight="normal" text-anchor="start" style="mix-blend-mode: normal"><tspan x="0" dy="0">B</tspan><tspan x="0" dy="46.15px">a</tspan><tspan x="0" dy="46.15px">c</tspan><tspan x="0" dy="46.15px">k</tspan><tspan x="0" dy="46.15px">d</tspan><tspan x="0" dy="46.15px">r</tspan><tspan x="0" dy="46.15px">o</tspan><tspan x="0" dy="46.15px">p</tspan></text></g></g></svg>