<svg xmlns="http://www.w3.org/2000/svg" xmlns:xlink="http://www.w3.org/1999/xlink" width="45.05607168341797" height="55.790973111640625" viewBox="0.9934127705041504 0.937512912029419 45.05607168341797 55.790973111640625" version="1.1">
    <!-- Generator: Sketch 52.4 (67378) - http://www.bohemiancoding.com/sketch -->
    <title>Slice 1</title>
    <desc>Created with Sketch.</desc>
    <g id="Page-1" fill-rule="evenodd">
        <g id="Watermelon-b">
            <g id="g6991">
                <path d="M 39.3451 55.3031 C 18.7626 54.6641 2.3627 43.0575 2.3627 28.833 C 2.3627 14.6085 18.7626 3.0019 39.3451 2.3629 " id="path4727-5" stroke="#231F20" stroke-width="2.72534895" fill="#4E9A06"/>
                <path d="M 39.3721 50.2398 C 39.2982 50.2425 39.2243 50.2448 39.1502 50.2466 C 37.6874 50.3018 36.2226 49.974 34.7876 49.7286 C 32.7768 49.3447 30.821 48.7878 28.8435 48.2562 C 27.8224 47.9359 26.7649 47.6436 25.7896 47.1928 C 24.4479 46.4717 23.1564 45.6678 21.8087 44.9569 C 19.7032 43.7778 17.6271 42.5476 15.6738 41.1124 C 12.3346 38.1975 9.0627 35.144 6.0488 31.8691 L 3.922 29.6059 C 3.9347 29.8988 3.9495 30.1882 3.9765 30.4785 C 3.9805 30.4845 3.9725 30.4993 3.9765 30.5057 C 4.0781 30.66 4.1961 30.8082 4.2764 30.9692 C 5.538 33.0054 6.863 34.999 8.3936 36.8315 C 9.6494 38.4349 10.9955 39.9527 12.4563 41.3577 C 13.9436 42.8364 15.3791 44.3938 17.0644 45.6385 C 18.4062 46.6753 19.7604 47.6828 21.2089 48.556 C 22.8063 49.563 24.4286 50.5299 26.1168 51.3645 C 28.3335 52.3058 30.656 52.9759 32.9607 53.6549 C 35.0289 53.9718 37.1607 54.1778 39.3426 54.2515 " id="path6968" fill="#356804" stroke-width="1" stroke="none"/>
                <path d="M 39.3681 36.2932 C 38.102 36.3603 36.8252 36.2878 35.5784 36.0681 C 33.2553 35.7672 30.9252 35.6216 28.5982 35.3591 C 27.3003 35.2495 26.0024 35.0841 24.7263 34.8138 C 22.1347 34.1376 19.5722 33.3735 17.0372 32.4962 C 15.116 31.7624 13.2457 30.8506 11.3112 30.1513 C 9.8608 29.5818 8.3733 29.1669 6.8396 28.9243 C 6.2337 28.8271 5.635 28.5989 5.04 28.4607 L 5.0399 28.4607 C 4.9288 28.4349 4.8248 28.3976 4.7127 28.3789 C 3.9958 28.5702 4.4243 29.606 5.0399 29.5241 C 5.8339 29.9317 6.6402 30.362 7.3848 30.8602 C 10.8722 32.9421 14.3485 35.0235 17.9096 36.9679 C 19.5427 37.9953 21.3198 38.7138 23.1175 39.3673 C 25.3358 40.047 27.6109 40.5779 29.8523 41.1669 C 32.0182 41.6626 34.1946 42.0896 36.3963 42.3666 C 37.3908 42.3991 38.3799 42.3831 39.3692 42.3516 " id="path6966" fill="#356804" stroke-width="1" stroke="none"/>
                <path d="M 39.3644 21.9267 C 38.4462 22.009 37.5289 22.0879 36.6144 22.1621 C 33.0145 22.3875 29.4154 22.4052 25.8169 22.6529 C 24.3855 22.786 22.9367 22.9684 21.5361 23.3073 C 20.4516 23.5233 19.3452 23.685 18.3186 24.1253 C 16.9453 24.584 15.6438 25.2157 14.3377 25.8431 C 12.5422 26.6033 10.6473 27.0854 8.7209 27.3155 C 7.7417 27.4175 6.7822 27.6072 5.8034 27.6972 C 5.363 27.7323 4.491 27.4667 4.4128 28.079 C 4.5797 28.3256 4.7806 28.4208 5.0399 28.4607 C 5.4721 28.5272 6.0237 28.4214 6.4305 28.5425 C 8.6028 28.78 10.7504 28.9829 12.8926 29.4423 C 14.6707 29.7904 16.4191 30.3384 18.1823 30.7511 C 18.8372 30.865 19.478 30.9966 20.1455 30.9965 C 21.2321 31.044 22.3493 31.1521 23.4175 30.8874 C 24.1024 30.6794 24.541 30.0583 25.108 29.6604 C 25.7058 29.2836 26.4515 29.2749 27.1257 29.3332 C 29.1749 29.4713 31.2091 29.6973 33.2606 29.7967 C 35.3034 29.8373 37.3387 29.7222 39.379 29.6514 " id="path6960" fill="#356804" stroke-width="1" stroke="none"/>
                <path d="M 39.3659 6.607 C 39.2022 6.6048 39.0382 6.6114 38.8776 6.6202 L 38.8775 6.6203 C 38.1248 6.6613 37.3924 6.8318 36.6417 6.9203 C 34.4905 7.2827 32.3345 7.7116 30.2613 8.4199 C 28.8137 8.8638 27.3957 9.3503 25.9805 9.8923 C 24.5778 10.484 23.1671 11.0459 21.836 11.801 C 19.721 12.9248 17.6207 14.0965 15.6193 15.4274 C 13.9588 16.6259 12.3532 17.9112 10.7931 19.2447 C 8.9841 20.804 7.2917 22.4992 5.667 24.2617 C 5.2947 24.6356 4.6441 24.9188 4.6036 25.516 C 4.2824 25.5721 37.3143 8.4353 38.8145 9.6014 M 38.9913 11.9437 C 36.7339 10.1585 4.4036 26.0572 4.6036 26.6339 C 4.3636 26.7755 4.1501 26.9548 4.1401 27.2883 C 4.3254 27.8898 5.1655 27.6403 5.5852 27.4519 C 6.4107 27.0823 7.2996 27.0149 8.1483 26.7157 C 9.9011 26.1425 11.618 25.4703 13.2744 24.6434 C 14.7808 23.9441 16.244 23.0866 17.7188 22.3258 C 19.5531 21.6099 21.4098 20.998 23.3357 20.608 C 24.4992 20.3418 25.7083 20.1996 26.8803 19.9809 C 29.7554 19.528 32.638 19.3621 35.5238 18.9993 C 36.8032 18.8456 38.0874 18.6806 39.3717 18.5463 " id="path6958" fill="#356804" fill-rule="nonzero" stroke-width="1" stroke="none"/>
                <path d="M 39.3454 3.4054 C 36.288 3.507 33.3278 3.8655 30.5067 4.439 C 28.9125 5.0136 27.3523 5.628 25.7896 6.2931 C 24.3473 7.0124 22.9806 7.9091 21.6179 8.7744 C 19.7664 10.1214 17.8185 11.3443 15.9737 12.7008 C 13.8342 14.3491 11.8442 16.193 9.8933 18.0722 C 9.0502 18.8821 8.2824 19.7503 7.5757 20.6898 C 6.4166 22.1687 5.3067 23.6936 4.2764 25.2706 C 4.2462 25.4174 4.2211 25.5592 4.1946 25.7068 C 5.2961 24.3316 6.4389 22.9858 7.5484 21.6169 C 9.0005 19.9339 10.3486 18.1402 12.0474 16.7089 C 13.3579 15.5204 14.7142 14.3698 16.1919 13.4097 C 17.248 12.7027 18.2497 11.9071 19.3548 11.2829 C 21.3506 10.0953 23.3911 8.944 25.4352 7.8473 C 26.2687 7.4318 27.0641 6.8859 27.971 6.6476 C 30.6274 5.7078 33.3691 5.1091 36.0964 4.439 C 37.1653 4.146 38.2668 4.0015 39.3711 3.9905 " id="path6744" fill="#356804" stroke-width="1" stroke="none"/>
                <path d="M 19.0175 14.7358 C 15.6335 16.6573 14.0651 19.6001 12.8373 18.1518 C 11.6095 16.7035 13.3582 13.9733 16.7422 12.0518 C 20.1252 10.131 23.8623 9.7463 25.0901 11.1947 C 26.3179 12.643 22.3995 12.8155 19.0175 14.7358 L 19.0175 14.7358 Z " id="Shine-2" fill="#BFEF90" stroke-width="1" stroke="none"/>
            </g>
            <path d="M 44.6802 28.833 C 44.6802 43.483 42.0611 55.3592 38.8302 55.3592 C 35.5993 55.3592 32.9802 43.483 32.9802 28.833 C 32.9802 14.183 35.5993 2.3068 38.8302 2.3068 C 42.0611 2.3068 44.6802 14.183 44.6802 28.833 Z " id="path7000" stroke="#231F20" stroke-width="2.73857443" fill="#EE1717" stroke-linejoin="round"/>
            <path d="M 39.637 11.7922 C 39.637 13.0614 39.1621 14.0903 38.5764 14.0903 C 37.9906 14.0903 37.5157 13.0614 37.5157 11.7922 C 37.5157 10.523 37.9906 9.4941 38.5764 9.4941 C 39.1621 9.4941 39.637 10.523 39.637 11.7922 Z " id="path7002" fill="#231F20" stroke-width="1" stroke="none"/>
            <path d="M 40.5209 19.7472 C 40.5209 21.0163 40.046 22.0452 39.4603 22.0452 C 38.8745 22.0452 38.3996 21.0163 38.3996 19.7472 C 38.3996 18.4779 38.8745 17.449 39.4603 17.449 C 40.046 17.449 40.5209 18.4779 40.5209 19.7472 Z " id="path7002-7" fill="#231F20" stroke-width="1" stroke="none"/>
            <path d="M 37.6925 25.404 C 37.6925 26.6732 37.2176 27.7021 36.6318 27.7021 C 36.046 27.7021 35.5712 26.6732 35.5712 25.404 C 35.5712 24.1348 36.046 23.1059 36.6318 23.1059 C 37.2176 23.1059 37.6925 24.1348 37.6925 25.404 Z " id="path7002-2" fill="#231F20" stroke-width="1" stroke="none"/>
            <path d="M 41.5816 29.4699 C 41.5816 30.7391 41.1067 31.768 40.5209 31.768 C 39.9351 31.768 39.4603 30.7391 39.4603 29.4699 C 39.4603 28.2007 39.9351 27.1718 40.5209 27.1718 C 41.1067 27.1718 41.5816 28.2007 41.5816 29.4699 Z " id="path7002-8" fill="#231F20" stroke-width="1" stroke="none"/>
            <path d="M 39.9906 47.3243 C 39.9906 48.5935 39.5157 49.6224 38.9299 49.6224 C 38.3441 49.6224 37.8693 48.5935 37.8693 47.3243 C 37.8693 46.0551 38.3441 45.0262 38.9299 45.0262 C 39.5157 45.0262 39.9906 46.0551 39.9906 47.3243 Z " id="path7002-5" fill="#231F20" stroke-width="1" stroke="none"/>
            <path d="M 41.4048 40.0765 C 41.4048 41.3457 40.9299 42.3745 40.3441 42.3745 C 39.7584 42.3745 39.2835 41.3457 39.2835 40.0765 C 39.2835 38.8073 39.7584 37.7784 40.3441 37.7784 C 40.9299 37.7784 41.4048 38.8073 41.4048 40.0765 Z " id="path7002-0" fill="#231F20" stroke-width="1" stroke="none"/>
            <path d="M 38.2228 35.8338 C 38.2228 37.103 37.7479 38.1319 37.1621 38.1319 C 36.5764 38.1319 36.1015 37.103 36.1015 35.8338 C 36.1015 34.5646 36.5764 33.5357 37.1621 33.5357 C 37.7479 33.5357 38.2228 34.5646 38.2228 35.8338 Z " id="path7002-3" fill="#231F20" stroke-width="1" stroke="none"/>
        </g>
    </g>
</svg>